<?xml version="1.0" encoding="UTF-8" standalone="no"?>
<!-- Created with Inkscape (http://www.inkscape.org/) -->

<svg
   width="76.641014mm"
   height="79.16346mm"
   viewBox="0 0 76.641014 79.16346"
   version="1.1"
   id="svg5"
   xml:space="preserve"
   sodipodi:docname="EtagLogo.svg"
   inkscape:version="1.2 (1:1.2+202206011326+fc4e4096c5)"
   xmlns:inkscape="http://www.inkscape.org/namespaces/inkscape"
   xmlns:sodipodi="http://sodipodi.sourceforge.net/DTD/sodipodi-0.dtd"
   xmlns="http://www.w3.org/2000/svg"
   xmlns:svg="http://www.w3.org/2000/svg"><sodipodi:namedview
     id="namedview21"
     pagecolor="#ffffff"
     bordercolor="#666666"
     borderopacity="1.0"
     inkscape:showpageshadow="2"
     inkscape:pageopacity="0.0"
     inkscape:pagecheckerboard="0"
     inkscape:deskcolor="#d1d1d1"
     inkscape:document-units="mm"
     showgrid="false"
     inkscape:zoom="2.7000443"
     inkscape:cx="102.40573"
     inkscape:cy="223.51485"
     inkscape:window-width="1920"
     inkscape:window-height="1016"
     inkscape:window-x="0"
     inkscape:window-y="0"
     inkscape:window-maximized="1"
     inkscape:current-layer="svg5" /><defs
     id="defs2" /><g
     id="layer1"
     transform="translate(-31.163169,-137.71124)"><path
       style="fill:#000000;stroke-width:1"
       d="m 35.955134,216.54259 c -2.546407,-0.94219 -3.983777,-2.66495 -4.628987,-5.54805 -0.607163,-2.71309 0.530305,-5.9512 2.610689,-7.43203 1.581552,-1.12576 2.544607,-1.43081 4.590826,-1.45416 4.361748,-0.0498 7.364123,2.96667 7.364123,7.39863 0,4.3715 -3.064124,7.44243 -7.350029,7.36634 -0.977953,-0.0174 -2.141933,-0.16619 -2.586622,-0.33073 z m 5.463212,-1.63474 c 1.712766,-0.8857 2.885939,-3.08547 2.885939,-5.4113 0,-3.55623 -2.363389,-6.08542 -5.6865,-6.08542 -1.924246,0 -2.934215,0.45135 -4.274715,1.91033 -1.446928,1.57481 -1.923101,3.4671 -1.428551,5.67697 0.278354,1.24382 0.569731,1.73395 1.695749,2.85243 0.909051,0.90296 1.710377,1.43809 2.417975,1.61474 1.176316,0.29366 3.254139,0.0297 4.390103,-0.55775 z m 8.640627,1.53421 c -0.426381,-0.0968 -0.463021,-0.64864 -0.463021,-6.97321 0,-7.41407 -0.0079,-7.37461 1.398238,-7.0217 0.624613,0.15677 0.993625,0.62015 4.560245,5.72648 3.523086,5.04401 3.918453,5.55625 4.288494,5.55625 0.287126,0 0.349745,-1.04978 0.325477,-5.4564 -0.03026,-5.49481 0.07397,-6.15615 0.919137,-5.83182 0.361701,0.13879 0.41466,1.03312 0.41466,7.00249 0,3.76385 -0.05589,6.89927 -0.124204,6.96758 -0.06831,0.0683 -0.545904,0.075 -1.061315,0.0148 -0.852321,-0.0995 -1.11456,-0.3641 -2.898328,-2.92438 -1.078669,-1.54824 -2.30687,-3.29123 -2.729338,-3.87331 -0.422469,-0.58208 -1.330532,-1.86201 -2.017922,-2.84427 -0.687388,-0.98227 -1.362845,-1.78594 -1.501013,-1.78594 -0.150752,1e-5 -0.251214,2.26863 -0.251214,5.67294 0,3.12011 -0.0893,5.71854 -0.198438,5.77429 -0.10914,0.0557 -0.406797,0.054 -0.661458,-0.004 z m 16.050372,-0.0443 c -0.227211,-0.22933 -0.09925,-13.75532 0.131482,-13.89792 0.132387,-0.0818 0.430043,-0.0761 0.661459,0.0127 0.367302,0.14095 0.421266,0.92251 0.424801,6.15242 0.0021,3.29503 0.096,6.13566 0.208373,6.3125 0.135969,0.21398 1.218885,0.34674 3.237095,0.39688 2.485927,0.0618 3.032774,0.1469 3.032774,0.47221 0,0.32817 -0.656672,0.41977 -3.793379,0.52917 -2.086357,0.0728 -3.842529,0.0827 -3.902605,0.022 z m 10.62172,0.0374 c -0.252868,-0.25287 -0.162518,-13.77731 0.0931,-13.93529 0.132387,-0.0818 0.430043,-0.0761 0.661459,0.0127 0.369554,0.14181 0.420751,0.9913 0.420751,6.98146 0,6.5297 -0.02188,6.82572 -0.513848,6.95437 -0.282614,0.0739 -0.580271,0.0679 -0.661458,-0.0132 z m 6.136243,0.007 c -0.426352,-0.0968 -0.463021,-0.64801 -0.463021,-6.95988 v -6.85473 l 0.636816,-0.15982 c 0.350247,-0.0879 0.871405,-0.0343 1.158123,0.11916 0.440278,0.23563 2.626969,3.23523 7.172526,9.83895 1.53298,2.22708 1.61587,2.0104 1.61587,-4.22381 0,-4.80907 0.0547,-5.54894 0.42075,-5.6894 0.23142,-0.0888 0.52907,-0.0945 0.66146,-0.0127 0.24046,0.14861 0.35373,13.67465 0.1165,13.91188 -0.0683,0.0683 -0.54529,0.0751 -1.05995,0.015 -0.86678,-0.1012 -1.12054,-0.37525 -3.442777,-3.71813 -4.386064,-6.31378 -5.287135,-7.53871 -5.625672,-7.64763 -0.257635,-0.0829 -0.330729,1.15223 -0.330729,5.58857 0,3.13224 -0.0893,5.74059 -0.198437,5.79634 -0.109141,0.0557 -0.406797,0.054 -0.661459,-0.004 z m 16.034674,-0.20319 c -0.0566,-0.14803 -0.071,-3.30318 -0.0321,-7.01146 l 0.0708,-6.74233 4.299488,-0.0727 4.29948,-0.0727 v 0.66802 0.66801 h -3.57188 c -2.66549,0 -3.57931,0.0839 -3.60116,0.33073 -0.15618,1.76387 -0.12916,3.6169 0.06,4.11505 0.22495,0.59232 0.31817,0.608 3.34148,0.5619 2.98627,-0.0455 3.11344,-0.025 3.19462,0.51516 0.0823,0.54723 -0.002,0.56257 -3.09954,0.56257 -2.76241,0 -3.21666,0.0613 -3.42998,0.46303 -0.19701,0.371 -0.23209,2.88405 -0.0665,4.7625 0.0218,0.24744 0.96193,0.33073 3.73332,0.33073 3.49829,0 3.70417,0.0287 3.70417,0.51682 0,0.48884 -0.2382,0.52107 -4.39972,0.59531 -2.81123,0.0502 -4.436848,-0.0187 -4.502588,-0.19065 z m -3.13624,-17.6964 c -3.6917,-0.909 -6.31342,-3.18898 -7.580777,-6.59264 -0.711477,-1.91078 -0.703188,-6.34991 0.01553,-8.31555 1.13618,-3.10739 3.216967,-5.05738 6.865327,-6.43377 1.13663,-0.4288 6.735458,-0.42809 8.130988,10e-4 1.47391,0.45324 3.19899,1.33482 3.70405,1.8929 0.40564,0.44823 0.33843,0.58343 -1.09903,2.2106 -0.8421,0.95324 -1.63695,1.73316 -1.76634,1.73316 -0.12939,0 -0.61426,-0.28121 -1.0775,-0.62491 -2.29288,-1.70126 -5.785408,-1.62611 -8.151568,0.1754 -0.23659,0.18012 -0.80213,0.91405 -1.25677,1.63093 -0.76036,1.19897 -0.82661,1.48549 -0.82661,3.57501 0,2.1338 0.0557,2.36058 0.91774,3.7388 1.31547,2.10305 2.66957,2.75476 5.68007,2.73374 1.733318,-0.0121 2.439548,-0.12991 3.005398,-0.50135 0.68387,-0.44891 0.73376,-0.59739 0.66146,-1.96856 l -0.0782,-1.48304 -1.71979,-0.13229 -1.719798,-0.13229 v -2.11667 -2.11667 h 4.101048 4.10104 l 0.0714,5.45335 c 0.0545,4.16109 -0.008,5.51683 -0.26458,5.72126 -0.52564,0.41914 -3.35046,1.33166 -5.08094,1.64132 -2.02702,0.36274 -4.955278,0.32309 -6.632138,-0.0898 z M 32.133451,187.7964 v -10.58766 l 7.077605,0.0705 7.077604,0.0705 0.07675,2.17667 0.07675,2.17666 -4.706955,0.0723 -4.706955,0.0723 v 1.71979 1.71979 l 4.431771,0.0726 4.431771,0.0725 v 2.23617 2.23616 l -4.431771,0.0725 -4.431771,0.0726 v 1.85208 1.85208 l 4.894792,0.13229 4.894792,0.1323 0.07685,2.18281 0.07684,2.18281 h -7.419033 -7.419034 z m 23.812502,2.26194 v -8.32571 l -2.976563,-0.0748 -2.976563,-0.0748 v -2.11666 -2.11667 h 8.202084 8.202084 v 2.11667 2.11666 l -2.778125,0.13229 -2.778126,0.1323 -0.06992,8.26822 -0.06991,8.26823 h -2.377483 -2.377479 z m 9.525,8.10178 c 0,-0.12317 0.165608,-0.56965 0.36802,-0.99219 0.202411,-0.42254 0.573722,-1.2445 0.825137,-1.82659 0.251415,-0.58208 0.611931,-1.41552 0.801145,-1.85208 0.189212,-0.43656 0.833491,-1.92485 1.43173,-3.30729 1.407125,-3.25169 1.448377,-3.34631 2.10385,-4.82577 0.305544,-0.68963 0.555535,-1.31173 0.555535,-1.38243 0,-0.0707 0.339662,-0.87567 0.754806,-1.78882 0.415142,-0.91315 1.086244,-2.40441 1.49134,-3.31392 l 0.736537,-1.65364 h 1.963118 1.963121 l 0.546915,1.25677 c 0.300802,0.69122 0.758024,1.73302 1.016048,2.3151 0.258024,0.58208 0.768739,1.77271 1.134922,2.64583 0.366184,0.87313 1.092891,2.51074 1.614909,3.63914 0.522015,1.1284 0.949118,2.10714 0.949118,2.17497 0,0.0678 0.283885,0.75194 0.630854,1.52024 0.346967,0.76829 1.016347,2.28987 1.487506,3.38128 0.47116,1.0914 1.080244,2.45322 1.353521,3.02626 0.273278,0.57303 0.496869,1.07905 0.496869,1.12448 0,0.0454 -1.233387,0.0826 -2.740861,0.0826 h -2.740861 l -0.90287,-2.18281 -0.902869,-2.18281 -3.642347,-0.0737 c -2.00329,-0.0405 -3.82986,0.0313 -4.059047,0.15952 -0.229188,0.12826 -0.627481,0.81626 -0.885092,1.52889 -1.102506,3.04982 -0.70058,2.75089 -3.698672,2.75089 -1.458809,0 -2.652382,-0.10077 -2.652382,-0.22393 z m 12.854504,-8.60209 c 0.195998,-0.51076 -1.613421,-5.19689 -2.006637,-5.19689 -0.291859,0 -2.17088,4.98981 -1.989521,5.28325 0.263514,0.42638 3.828971,0.34933 3.996158,-0.0864 z M 68.249078,170.69578 c -5.896496,-0.4887 -11.048286,-4.0466 -13.543601,-9.3534 -1.155015,-2.45637 -1.50822,-4.23499 -1.481952,-7.46262 0.03307,-4.06438 0.938829,-6.71485 3.417303,-9.99987 1.206944,-1.59972 1.775478,-2.13704 3.544202,-3.34962 3.048072,-2.08966 5.503882,-2.81692 9.519257,-2.81902 3.370622,-0.002 4.676706,0.29407 7.585657,1.71817 1.910607,0.93536 5.504694,4.09349 6.176246,5.42708 0.20583,0.40875 0.577273,1.04571 0.825429,1.41548 0.629396,0.93783 1.469467,3.73309 1.802342,5.99713 0.286189,1.9465 0.06196,4.71089 -0.542814,6.69202 -0.807929,2.64664 -2.608885,5.53131 -4.634392,7.42311 -1.305348,1.21919 -4.349385,3.16023 -4.956019,3.16023 -0.18138,0 -0.442892,0.0973 -0.581136,0.21629 -0.646774,0.55656 -4.926191,1.11771 -7.130522,0.93502 z m 4.698932,-2.62433 c 2.760483,-0.71531 4.418849,-1.64598 6.998092,-3.92731 0.478877,-0.42356 0.870685,-0.87224 0.870685,-0.99706 0,-0.12482 -2.768203,-0.19499 -6.151562,-0.15593 l -6.151563,0.071 -0.08136,1.12448 -0.08136,1.12448 h -3.57871 c -2.716048,0 -3.552539,0.0785 -3.470137,0.32573 0.147542,0.44262 3.24585,2.00405 4.850381,2.4444 1.792468,0.49193 4.876438,0.48748 6.795533,-0.01 z M 60.957812,161.7231 c -0.02236,-1.97341 0.01953,-3.64822 0.09312,-3.7218 0.101221,-0.10122 5.01146,-0.1758 7.06586,-0.10732 0.14552,0.005 0.264583,0.60413 0.264583,1.33174 v 1.32291 h 7.002151 c 6.583471,0 7.018073,-0.0297 7.268475,-0.49763 1.543068,-2.88325 1.481373,-10.34798 -0.09635,-11.65737 -0.237744,-0.19731 -2.528781,-0.26698 -7.195394,-0.2188 l -6.846594,0.0707 -0.08136,1.12448 -0.08136,1.12448 H 64.66199 c -3.331481,0 -3.690332,-0.0449 -3.703178,-0.46303 -0.0078,-0.25466 -0.0019,-1.92153 0.01334,-3.70416 0.01516,-1.78263 -0.07272,-3.24115 -0.19527,-3.24115 -0.435319,0 -2.431767,2.27297 -3.367199,3.83358 -0.939157,1.56681 -1.992892,4.55625 -1.992892,5.6538 v 0.56679 h 9.128125 9.128126 v -1.33018 -1.33018 l 3.770313,0.0734 3.770312,0.0734 0.07662,3.175 c 0.115205,4.77361 0.45471,4.39419 -3.853839,4.3069 l -3.631118,-0.0736 -0.08136,-1.12448 -0.08136,-1.12448 h -9.112912 c -6.616682,0 -9.112912,0.0822 -9.112912,0.30003 0,0.71774 0.650846,2.621 1.504664,4.40007 0.862023,1.79616 3.263887,4.8249 3.82627,4.8249 0.147621,0 0.234029,-1.47573 0.210092,-3.58803 z m 4.989365,-0.18228 0.07935,-1.52135 h -1.468414 -1.468411 v 1.41111 c 0,0.77611 0.08487,1.49597 0.188587,1.5997 0.103722,0.10372 0.7288,0.15333 1.389063,0.11024 l 1.200475,-0.0783 z m 12.965682,-7.28967 0.08044,-1.40269 -1.535653,0.0798 -1.535655,0.0798 -0.08378,1.02001 c -0.133704,1.62788 0.02479,1.79664 1.602172,1.7059 l 1.39202,-0.0801 z m -13.045031,-7.59314 v -1.5875 h -1.322917 -1.322916 l -0.08197,1.2893 c -0.120581,1.89658 0.0019,2.06048 1.468334,1.96645 l 1.25947,-0.0807 z m 14.948959,-1.43329 c 0,-0.4872 -3.085407,-2.95373 -4.630208,-3.70147 -2.795871,-1.3533 -3.301728,-1.46835 -6.482292,-1.47421 -3.097366,-0.006 -3.510034,0.0821 -6.217709,1.32349 -2.877153,1.31907 -2.779268,1.43127 1.256771,1.44061 l 3.638021,0.008 v 1.32291 1.32292 h 6.217709 c 3.594357,0 6.217708,-0.10238 6.217708,-0.24266 z"
       id="path482" /><path
       style="fill:#5a9dad;fill-opacity:1;stroke-width:0.999999"
       d="m 258.36543,636.44176 c -5.87658,-0.41125 -9.50108,-1.34713 -15.52925,-4.00984 -5.91676,-2.61349 -11.44991,-5.93046 -11.02897,-6.61156 0.4354,-0.70449 3.96545,-0.90166 16.22636,-0.90632 l 10.43846,-0.004 -8.7e-4,-0.39308 c -10e-4,-0.46259 0.54961,-8.06801 0.58694,-8.10565 0.0139,-0.0141 7.21876,-0.10654 16.01065,-0.20538 18.74122,-0.21069 30.2235,-0.0242 30.2235,0.49094 0,0.55703 -2.65643,3.21999 -5.9405,5.9551 -6.9504,5.7886 -12.07361,8.78477 -18.94896,11.08181 -4.05234,1.35387 -7.62213,2.1444 -11.38602,2.52144 -2.58366,0.25882 -8.21019,0.35733 -10.65134,0.1865 z"
       id="path3955"
       transform="scale(0.26458333)" /><path
       style="fill:#5a9dad;fill-opacity:1;stroke-width:0.999999"
       d="m 228.30001,623.97332 c -2.53182,-1.86382 -8.04732,-8.8398 -11.41452,-14.43704 -2.52004,-4.18903 -6.1854,-13.28673 -7.05318,-17.50654 -0.38227,-1.85888 -0.36433,-2.175 0.13047,-2.29919 2.48643,-0.62405 11.84772,-0.80552 41.65219,-0.80743 14.62913,-8.8e-4 26.60341,0.0179 26.60952,0.042 0.006,0.024 0.15022,1.8715 0.32027,4.10549 0.17005,2.234 0.36813,4.12079 0.44018,4.19286 0.14987,0.14992 8.94572,0.35841 18.18365,0.43101 6.99872,0.055 7.67864,-0.0286 8.89096,-1.09301 1.64453,-1.44391 1.6996,-2.70491 1.04312,-23.88366 l -0.10966,-3.53772 -1.59287,-0.004 c -0.87607,-0.002 -7.01737,-0.11815 -13.64732,-0.25808 -6.62995,-0.13993 -12.34927,-0.25621 -12.70959,-0.2584 l -0.65514,-0.004 v 5.06637 5.06637 h -34.43993 -34.43994 l 0.0965,-2.14011 c 0.10828,-2.40069 0.51476,-4.25319 1.80391,-8.22107 2.38046,-7.32681 5.22161,-12.9705 9.09616,-18.06874 2.92781,-3.85249 7.30113,-8.53784 8.59262,-9.20569 0.54166,-0.28011 0.55643,-0.27728 0.71389,0.13689 0.35642,0.93745 0.53365,6.24805 0.53365,15.99084 0,8.17146 0.0465,10.32372 0.22835,10.57244 0.1256,0.17176 0.65625,0.43776 1.17924,0.59111 0.82308,0.24133 2.6826,0.28752 13.83518,0.34368 l 12.88429,0.0649 v -0.44575 c 0,-0.87888 0.5559,-7.8765 0.63179,-7.9529 0.16146,-0.16255 26.82615,-0.3758 37.45331,-0.29953 11.06602,0.0794 14.23828,0.23011 15.18856,0.72152 1.80249,0.9321 3.45624,5.46875 4.30565,11.81141 0.369,2.75538 0.52098,11.2286 0.26297,14.66144 -0.51878,6.90247 -1.91137,13.23357 -3.69137,16.78192 -0.74745,1.49003 -1.16929,1.77984 -3.05049,2.09577 -2.09071,0.35112 -11.22705,0.50095 -30.94806,0.50754 l -20.11652,0.007 -0.0776,-4.23653 c -0.075,-4.09386 -0.18982,-5.02044 -0.70382,-5.67782 -0.13246,-0.16943 -2.0752,-0.21789 -8.66609,-0.21617 -10.85547,0.003 -17.98671,0.24241 -18.3612,0.61691 -0.23084,0.23083 -0.28215,1.85943 -0.38662,12.27106 -0.12324,12.28232 -0.28489,15.23689 -0.83367,15.23689 -0.079,0 -0.60954,-0.34293 -1.17889,-0.76206 z"
       id="path3957"
       transform="scale(0.26458333)" /><path
       style="fill:#323232;fill-opacity:1;stroke-width:0.999999"
       d="m 258.47203,544.72173 v -5.06637 l -10.26376,-0.004 c -15.54798,-0.006 -17.28214,-0.25276 -14.50029,-2.06324 2.01298,-1.31007 10.69012,-5.27748 14.15684,-6.47286 2.88972,-0.99642 5.21718,-1.40208 9.29695,-1.62041 3.83814,-0.2054 12.3648,-0.0884 15.28645,0.20975 4.50932,0.46017 7.68827,1.5197 14.41293,4.80378 4.15693,2.0301 8.68031,5.08525 13.45208,9.08573 2.17354,1.82221 4.97902,4.65832 4.97902,5.03338 0,0.13705 -0.17689,0.29351 -0.39308,0.3477 -1.87122,0.469 -16.1193,0.80308 -34.50371,0.80902 l -11.92343,0.004 z"
       id="path3959"
       transform="scale(0.26458333)" /><path
       style="fill:#323232;fill-opacity:1;stroke-width:0.999999"
       d="m 211.47712,718.2011 v -31.44641 l -1.00454,-0.004 c -0.5525,-0.002 -5.2498,-0.11845 -10.43846,-0.25896 -5.18866,-0.1405 -9.76804,-0.25685 -10.17641,-0.25856 l -0.74248,-0.003 v -7.94895 -7.94896 h 30.83495 30.83495 v 7.94896 7.94895 l -0.48043,0.008 c -1.68078,0.0273 -20.31446,0.98853 -20.37232,1.05088 -0.0392,0.0423 -0.1591,11.47619 -0.26638,25.4087 -0.10728,13.93251 -0.24335,27.94581 -0.30238,31.14068 l -0.10732,5.80885 h -8.88959 -8.88959 z"
       id="path4582"
       transform="scale(0.26458333)" /><path
       style="fill:#323232;fill-opacity:1;stroke-width:0.999999"
       d="m 255.32739,749.64839 c -4.42791,-0.11874 -7.25807,-0.3473 -7.70266,-0.62208 -0.21249,-0.13132 0.61935,-2.29175 2.24969,-5.84278 0.772,-1.68151 4.46778,-10.13273 8.21283,-18.7805 3.74505,-8.64776 7.90919,-18.23892 9.25364,-21.31368 1.34446,-3.07476 2.73758,-6.41594 3.09583,-7.42484 0.65565,-1.84649 2.049,-5.02993 8.02163,-18.32734 1.787,-3.97856 3.24909,-7.30009 3.24909,-7.38118 0,-0.0811 3.32152,-0.14601 7.38117,-0.14428 l 7.38117,0.003 2.34507,5.36895 c 1.28979,2.95293 3.63148,8.35637 5.20377,12.00764 4.674,10.85433 5.39102,12.48734 8.13108,18.51845 3.23868,7.1286 3.70194,8.19487 4.34152,9.99261 0.28024,0.78771 1.61676,3.93235 2.97004,6.98809 1.35328,3.05574 3.67372,8.33034 5.15653,11.72134 1.48281,3.39099 3.60181,8.13696 4.70888,10.54661 1.10707,2.40964 1.96331,4.43077 1.90276,4.49139 -0.0605,0.0606 -4.68548,0.13494 -10.27762,0.16513 l -10.16753,0.0549 -3.38437,-8.19726 -3.38437,-8.19725 -3.33612,-0.11099 c -11.76532,-0.39142 -23.06656,-0.28901 -25.34862,0.22971 -1.4303,0.32511 -2.77988,2.68747 -4.89391,8.56643 -2.07692,5.77581 -2.78258,6.92989 -4.53919,7.42377 -1.19625,0.33634 -4.65328,0.42268 -10.57031,0.26401 z m 38.52186,-32.20398 c 1.59825,-0.33749 2.16984,-0.61194 2.29253,-1.10076 0.36739,-1.4638 -2.83588,-10.93043 -5.60922,-16.57695 -1.14288,-2.32689 -1.78537,-3.17823 -2.26087,-2.99576 -0.60987,0.23403 -3.65318,7.38799 -5.76272,13.54652 -1.17407,3.42757 -1.71268,5.46365 -1.64078,6.20257 0.0452,0.46452 0.15683,0.57953 0.7519,0.77469 1.35413,0.44412 2.6617,0.53462 6.81339,0.47158 2.80215,-0.0426 4.59847,-0.14931 5.41577,-0.32189 z"
       id="path4584"
       transform="scale(0.26458333)" /><path
       style="fill:#323232;fill-opacity:1;stroke-width:0.999999"
       d="m 369.23328,751.37388 c -10.3651,-0.82917 -19.27021,-4.61712 -26.28829,-11.18218 -4.46083,-4.17289 -8.82226,-11.4144 -10.20932,-16.95106 -1.04352,-4.16536 -1.55045,-10.94603 -1.24598,-16.66602 0.42453,-7.97543 1.22009,-11.44895 3.83921,-16.76264 4.39816,-8.92299 11.26981,-14.82203 22.6567,-19.44988 3.24053,-1.31701 6.74178,-1.67611 16.31405,-1.6732 11.42941,0.003 14.28712,0.39383 20.00341,2.73244 4.25196,1.73952 8.11683,3.97324 9.57859,5.53599 1.00926,1.07897 1.06263,1.65158 0.27089,2.90609 -1.71116,2.71135 -10.16031,11.78728 -10.96705,11.78062 -0.3831,-0.003 -2.38532,-1.16653 -4.38555,-2.54818 -7.43566,-5.13614 -17.52647,-5.8088 -26.13437,-1.74213 -4.16884,1.9695 -6.12188,3.91131 -9.58881,9.53369 -2.33294,3.78336 -2.53945,4.67308 -2.66093,11.4642 -0.13334,7.45416 0.1252,9.52684 1.54001,12.34573 2.21689,4.41697 5.44702,8.45625 8.25007,10.31671 3.44515,2.28663 6.83008,3.07451 13.80098,3.2123 4.71364,0.0932 8.00331,-0.10058 9.85124,-0.58021 2.36027,-0.61262 4.47978,-1.98794 5.12835,-3.3277 0.3723,-0.76907 0.39875,-1.0267 0.36408,-3.54706 -0.0469,-3.4115 -0.26801,-7.29769 -0.42403,-7.45372 -0.0652,-0.0652 -2.97021,-0.34085 -6.45554,-0.61252 -3.48533,-0.27167 -6.35662,-0.49621 -6.38064,-0.49899 -0.024,-0.003 -0.0437,-3.58209 -0.0437,-7.95401 v -7.94896 h 15.35812 15.35812 l 0.11742,1.4413 c 0.0646,0.79271 0.1306,9.61736 0.14671,19.61033 0.0364,22.56149 0.27803,20.68574 -2.8533,22.14695 -3.79188,1.76946 -13.88921,4.67107 -18.64031,5.35657 -4.73029,0.68249 -11.52624,0.89743 -16.30015,0.51554 z"
       id="path4586"
       transform="scale(0.26458333)" /><path
       style="fill:#5a9dad;fill-opacity:1;stroke-width:0.999999"
       d="m 121.50544,709.70723 v -39.94028 l 5.3721,0.10921 c 2.95465,0.0601 14.92394,0.19775 26.59842,0.30595 11.67448,0.10821 21.27045,0.26525 21.32438,0.34899 0.0539,0.0837 0.19374,3.27695 0.3107,7.09603 0.11695,3.81908 0.25734,7.42081 0.31197,8.00385 l 0.0993,1.06006 -15.87118,0.20963 c -8.72915,0.1153 -16.75561,0.25697 -17.83658,0.31483 l -1.9654,0.10519 v 6.53039 6.53039 l 1.09189,0.004 c 0.60054,0.002 7.38117,0.11821 15.06807,0.25776 7.6869,0.13955 14.74269,0.25566 15.67953,0.25802 l 1.70335,0.004 v 8.38571 8.38571 l -1.17924,0.004 c -0.64858,0.002 -7.46852,0.1182 -15.15542,0.25775 -7.6869,0.13955 -14.70339,0.25567 -15.59218,0.25803 l -1.616,0.004 v 7.07544 c 0,3.8915 0.0197,7.07727 0.0437,7.07951 0.024,0.002 8.32716,0.23413 18.45143,0.51533 10.12427,0.28121 18.43171,0.53522 18.46097,0.56449 0.05,0.05 0.60578,14.41711 0.60519,15.64386 l -2.8e-4,0.56778 H 149.4578 121.50543 Z"
       id="path4588"
       transform="scale(0.26458333)" /><path
       style="fill:#5a9dad;fill-opacity:1;stroke-width:0.999999"
       d="m 258.47203,544.72173 v -5.06637 l -4.06182,-0.0106 c -7.44762,-0.0194 -19.95102,-0.31608 -20.63623,-0.48968 -1.73386,-0.43928 -1.15419,-0.98386 3.47173,-3.26155 9.06757,-4.46466 12.86679,-5.73782 18.53181,-6.21021 2.97947,-0.24845 15.16023,-0.11761 17.45686,0.18752 5.88101,0.78134 14.28717,4.4832 21.19559,9.33398 4.37228,3.07002 10.85251,8.77816 10.65119,9.38213 -0.11666,0.34997 -0.9423,0.46043 -5.02998,0.67291 -3.27706,0.17036 -27.61608,0.50526 -37.95407,0.52225 l -3.62508,0.006 z"
       id="path4590"
       transform="scale(0.26458333)" /><path
       style="fill:#333333;fill-opacity:1;stroke-width:0.999999"
       d="m 121.50544,709.71342 v -39.9341 l 2.48951,0.10575 c 1.36923,0.0582 9.95803,0.18135 19.08622,0.27374 21.83647,0.22102 31.29129,0.37341 31.50885,0.50787 0.10894,0.0673 0.28609,3.05091 0.45753,7.70586 0.15387,4.17779 0.31848,7.72462 0.36579,7.88184 0.10226,0.33977 -1.33441,0.38514 -21.52766,0.67979 -7.02917,0.10257 -13.06295,0.23236 -13.4084,0.28842 l -0.6281,0.10192 v 6.5128 6.51279 l 1.44129,0.0976 c 1.58871,0.10756 24.07325,0.46457 29.00058,0.46047 l 3.10097,-0.003 v 8.35367 8.35365 l -14.98072,0.21012 c -8.2394,0.11556 -15.78741,0.25736 -16.77336,0.3151 l -1.79264,0.10499 0.0456,7.09812 0.0456,7.09812 7.5122,0.20441 c 20.45174,0.55649 27.50547,0.76985 28.32819,0.85683 l 0.89992,0.0951 0.10371,1.34353 c 0.057,0.73894 0.18335,3.78062 0.28068,6.7593 0.0973,2.97867 0.2096,5.98574 0.24948,6.68236 l 0.0725,1.26659 h -27.93889 -27.9389 z"
       id="path5927"
       transform="scale(0.26458333)" /><path
       style="fill:#333333;fill-opacity:1;stroke-width:0.999999"
       d="m 142.20766,819.42389 c -0.28826,-0.0389 -1.4675,-0.19527 -2.62053,-0.34744 -2.47069,-0.32605 -4.486,-0.95678 -6.85402,-2.14511 -6.54829,-3.28609 -10.69288,-8.19641 -13.1387,-15.56613 -2.27767,-6.86305 -2.27474,-12.89786 0.009,-19.52238 2.34218,-6.79256 6.47101,-11.56764 13.08249,-15.13017 1.85533,-0.99972 4.62291,-1.93392 6.90116,-2.32948 1.31751,-0.22875 2.77667,-0.30525 5.93945,-0.31135 3.70998,-0.007 4.42424,0.0385 6.20194,0.3967 6.26686,1.2627 11.09924,3.9291 14.92293,8.23412 8.12488,9.14768 8.97382,24.98759 1.90831,35.60639 -1.25184,1.8814 -3.88756,4.63358 -5.81628,6.07328 -2.89258,2.15917 -6.79572,3.86481 -10.61918,4.6405 -1.52256,0.30889 -2.59611,0.39016 -5.63685,0.4267 -2.06586,0.0248 -3.99195,0.0133 -4.28021,-0.0256 z m 7.81998,-5.03532 c 4.98811,-0.93991 8.1206,-2.49249 10.92723,-5.41594 3.22267,-3.35681 5.41659,-7.93295 6.21703,-12.96768 0.39636,-2.49307 0.36998,-6.49074 -0.0594,-8.99746 -1.5959,-9.31767 -7.65747,-15.89157 -16.43182,-17.82066 -1.55948,-0.34287 -2.31871,-0.40222 -5.06636,-0.3961 -6.80306,0.0152 -10.05345,1.35433 -14.77123,6.08578 -4.20809,4.22027 -6.22484,8.03586 -6.993,13.23037 -0.64625,4.37018 0.25633,10.59057 2.06237,14.21337 1.87835,3.76785 8.82878,10.23919 12.47397,11.61416 2.02867,0.76521 2.91166,0.87275 6.61643,0.80576 2.25734,-0.0408 4.03583,-0.16526 5.02474,-0.3516 z"
       id="path5929"
       transform="scale(0.26458333)" /><path
       style="fill:#333333;fill-opacity:1;stroke-width:0.999999"
       d="m 189.39574,817.97911 c -1.19474,-0.26075 -1.45051,-1.31491 -1.67992,-6.92374 -0.21373,-5.22546 -0.21371,-33.73895 3e-5,-38.2598 0.35626,-7.53561 0.95105,-8.56561 4.43145,-7.67395 2.97988,0.76343 3.33319,1.20019 18.72554,23.14804 12.68638,18.08944 13.9208,19.67245 15.22368,19.52267 1.21036,-0.13915 1.28342,-1.20136 1.45782,-21.19528 0.0844,-9.67155 0.22244,-17.38706 0.32166,-17.97327 0.46457,-2.74499 0.92355,-3.60247 1.9283,-3.60247 1.29066,0 1.76859,0.68883 2.1212,3.05729 0.31843,2.13877 0.49309,20.65773 0.32873,34.85311 -0.0862,7.44668 -0.20647,13.86475 -0.26723,14.26236 -0.10107,0.66138 -0.16224,0.73133 -0.7184,0.82159 -0.87036,0.14124 -4.02124,-0.16813 -4.90432,-0.48153 -0.96042,-0.34085 -1.2994,-0.58141 -2.54412,-1.80537 -1.35649,-1.33388 -2.92388,-3.443 -9.05567,-12.18559 -2.83047,-4.03562 -7.01989,-9.97114 -9.30982,-13.19002 -2.28992,-3.21889 -5.03012,-7.07108 -6.08932,-8.56042 -3.19789,-4.49652 -5.29884,-6.98809 -5.89255,-6.98809 -0.67087,0 -0.83015,2.88035 -1.02405,18.51844 -0.23641,19.06587 -0.43673,24.34942 -0.93521,24.66609 -0.24694,0.15687 -1.37755,0.1515 -2.1178,-0.0101 z"
       id="path5931"
       transform="scale(0.26458333)" /><path
       style="fill:#333333;fill-opacity:1;stroke-width:0.999999"
       d="m 250.09634,817.79129 c -0.41996,-0.26571 -0.50905,-3.25797 -0.52048,-17.48011 -0.0138,-17.16691 0.3612,-33.54353 0.7939,-34.67113 0.054,-0.14082 0.25598,-0.30609 0.44877,-0.36728 0.52416,-0.16636 1.82215,0.0757 2.24592,0.41885 1.016,0.82271 1.17162,3.57637 1.3937,24.66153 0.15913,15.10819 0.31113,20.45847 0.62211,21.89766 0.0739,0.34206 0.27859,0.5666 0.65765,0.72145 1.36865,0.55909 5.01139,0.89618 12.34275,1.14217 8.04496,0.26994 10.07368,0.52728 10.61005,1.34588 0.5209,0.795 -0.35985,1.26523 -3.0105,1.60728 -4.51473,0.5826 -24.89567,1.15913 -25.58387,0.7237 z"
       id="path5933"
       transform="scale(0.26458333)" /><path
       style="fill:#333333;fill-opacity:1;stroke-width:0.999999"
       d="m 290.12645,817.90888 c -0.44662,-0.53814 -0.59992,-8.4761 -0.49672,-25.72136 0.0909,-15.19464 0.23665,-21.72634 0.56646,-25.38919 0.0998,-1.10799 0.16929,-1.30488 0.51667,-1.46316 0.52092,-0.23735 1.87734,-0.0331 2.3564,0.35482 1.05346,0.85304 1.21149,4.34097 1.21248,26.75958 9.8e-4,22.34996 -0.0994,24.34781 -1.26705,25.21959 -0.62491,0.46656 -2.56625,0.62769 -2.88824,0.23972 z"
       id="path5935"
       transform="scale(0.26458333)" /><path
       style="fill:#333333;fill-opacity:1;stroke-width:0.999999"
       d="m 313.4159,818.00516 c -1.07717,-0.26242 -1.42206,-1.40162 -1.65444,-5.46482 -0.0991,-1.73288 -0.17596,-12.49555 -0.1774,-24.84467 l -0.003,-21.78738 0.74248,-0.19262 c 0.40837,-0.10594 1.01764,-0.26576 1.35395,-0.35516 0.91518,-0.24329 2.61915,-0.19795 3.60906,0.096 1.31218,0.38968 2.35995,1.52317 6.46099,6.98963 2.94384,3.92397 8.1934,11.30023 14.29825,20.09076 2.86939,4.13171 6.08784,8.76612 7.15213,10.29868 3.88414,5.59315 5.00606,6.21041 5.69559,3.13361 0.4126,-1.84111 0.55095,-5.94333 0.70044,-20.76978 0.0882,-8.74882 0.237,-16.26064 0.33543,-16.93481 0.34814,-2.38477 0.67464,-2.82753 2.21326,-3.0014 1.36614,-0.15437 1.42126,-0.0535 1.63336,2.99009 0.33888,4.86276 0.52537,15.82004 0.51888,30.48555 -0.006,13.72098 -0.11804,18.87979 -0.41622,19.17725 -0.22159,0.22105 -3.75036,0.0644 -4.84058,-0.21492 -2.66635,-0.68309 -3.64446,-1.8486 -13.86088,-16.5165 -15.25796,-21.90613 -18.59724,-26.36761 -19.59195,-26.17607 -0.91561,0.17631 -1.07585,2.98438 -1.28936,22.59467 -0.16676,15.31648 -0.32685,19.81985 -0.72147,20.29533 -0.18816,0.22672 -1.41678,0.28735 -2.15899,0.10654 z"
       id="path5937"
       transform="scale(0.26458333)" /><path
       style="fill:#333333;fill-opacity:1;stroke-width:0.999999"
       d="m 376.59861,817.77294 c -0.99359,-0.0893 -2.0156,-0.26273 -2.27113,-0.3854 l -0.46459,-0.22305 0.039,-25.83401 c 0.0215,-14.20871 0.0627,-25.85772 0.0917,-25.8867 0.0435,-0.0435 29.47119,-0.59717 31.74274,-0.59717 h 0.70848 v 2.42949 2.42949 l -11.83608,0.0813 c -11.49591,0.0789 -13.52061,0.1706 -14.74979,0.66769 -0.25733,0.10407 -0.50886,0.29601 -0.55894,0.42653 -0.2246,0.58528 -0.49256,7.93576 -0.38824,10.64959 0.17711,4.60711 0.6158,6.14462 1.94403,6.81339 0.66413,0.33439 1.14432,0.35348 11.17608,0.44434 8.07361,0.0731 10.61382,0.14772 11.05523,0.32467 0.71341,0.28598 1.08658,0.98194 1.08658,2.02646 0,1.4471 0.13859,1.42943 -13.01532,1.65927 -9.0473,0.15809 -9.90823,0.23168 -10.95549,0.93638 -0.77682,0.52273 -0.97465,1.22293 -1.20805,4.27577 -0.19013,2.48677 -0.0851,10.69646 0.17363,13.56851 0.10673,1.18485 0.12919,1.23208 0.72161,1.517 1.04827,0.50418 4.37418,0.68864 15.08829,0.83684 10.49025,0.14509 11.32285,0.20288 12.03424,0.83525 0.42231,0.37538 0.40591,1.51505 -0.028,1.949 -0.46007,0.46007 -1.73698,0.69227 -4.90868,0.89261 -3.74645,0.23665 -23.2676,0.36137 -25.47732,0.16277 z"
       id="path5939"
       transform="scale(0.26458333)" /><path
       style="fill:#cccccc;fill-opacity:1;stroke:none;stroke-width:1;stroke-opacity:1"
       d=""
       id="path2212"
       transform="matrix(0.26458333,0,0,0.26458333,31.163169,137.71124)" /><path
       style="fill:#cccccc;fill-opacity:1;stroke:none;stroke-width:1;stroke-opacity:1"
       d="m 42.701474,166.36513 c 0.12842,-0.004 1.142048,-0.0201 2.252506,-0.0362 3.375854,-0.0489 7.097298,-0.11966 8.735329,-0.1661 2.550804,-0.0723 3.579252,-0.14137 3.861361,-0.25924 l 0.100674,-0.0421 -0.01684,-0.17174 c -0.05976,-0.60966 -0.171081,-3.02038 -0.332668,-7.20396 -0.222759,-5.76736 -0.364802,-8.17991 -0.488722,-8.30075 -0.133247,-0.12994 -7.543192,-0.2682 -23.259017,-0.434 -2.168037,-0.0229 -4.234441,-0.0447 -4.592009,-0.0486 -0.564461,-0.006 -0.727818,-0.0198 -0.679862,-0.0571 0.0063,-0.005 0.926182,4.3e-4 2.044195,0.0118 1.118012,0.0114 3.411036,0.0342 5.095608,0.0508 12.800386,0.12545 21.483487,0.2686 21.571628,0.35563 0.06525,0.0644 0.166458,2.32349 0.335497,7.48818 0.185835,5.67792 0.245477,7.05191 0.3571,8.2265 0.02079,0.21871 0.03534,0.40011 0.03235,0.4031 -0.02187,0.0219 -13.750302,0.20542 -14.681106,0.19628 -0.313235,-0.003 -0.464446,-0.009 -0.336026,-0.0126 z"
       id="path2214"
       transform="matrix(0.26458333,0,0,0.26458333,31.163169,137.71124)" /><path
       style="fill:#cccccc;fill-opacity:1;stroke:none;stroke-width:1;stroke-opacity:1"
       d="m 57.279194,157.60676 c -0.206338,-5.20571 -0.336708,-7.29532 -0.462841,-7.41844 -0.149451,-0.14589 -7.343407,-0.2842 -23.440804,-0.45068 -3.494355,-0.0361 -5.019026,-0.0592 -5.002572,-0.0756 0.01593,-0.0159 7.178557,0.0538 14.809215,0.14417 7.379101,0.0874 12.962774,0.18994 13.616614,0.25008 0.218441,0.0201 0.200885,-0.0207 0.240482,0.5595 0.07915,1.15986 0.344829,8.30718 0.325386,8.75362 -0.0045,0.10325 -0.04296,-0.68992 -0.08548,-1.76261 z"
       id="path2216"
       transform="matrix(0.26458333,0,0,0.26458333,31.163169,137.71124)" /></g><path
     style="fill:#ffffff;fill-opacity:1;stroke-width:0.999999"
     d="m 122.76388,95.960054 c -0.6028,-0.07807 -1.17338,-0.219317 -1.26794,-0.31388 -0.41232,-0.412318 -0.64169,-2.508671 -0.74559,-6.814336 l -0.10836,-4.490776 h 5.50096 5.50096 l -0.004,0.641539 c -0.002,0.352847 -0.11585,2.604651 -0.2529,5.004009 -0.13705,2.399357 -0.25085,4.676856 -0.2529,5.061107 l -0.004,0.698638 -3.29324,0.201597 c -3.57814,0.219038 -3.47761,0.218799 -5.07356,0.0121 z"
     id="path2013"
     transform="scale(0.26458333)" /><path
     style="fill:#ffffff;fill-opacity:1;stroke-width:0.999999"
     d="m 170.60512,67.844205 c -1.24958,-0.445898 -1.65738,-1.110326 -1.77844,-2.897567 -0.0733,-1.081712 0.32307,-6.89365 0.47892,-7.022758 0.0807,-0.06689 11.3048,-0.634941 11.35049,-0.574447 0.0568,0.07522 -0.55851,10.244323 -0.62378,10.309004 -0.10648,0.105516 -5.66838,0.429891 -7.24433,0.422497 -0.84684,-0.004 -1.82912,-0.110502 -2.18286,-0.236729 z"
     id="path2015"
     transform="scale(0.26458333)" /><path
     style="fill:#ffffff;fill-opacity:1;stroke-width:0.999999"
     d="m 122.24048,39.746789 c -1.14091,-0.603201 -1.2889,-1.120435 -1.2889,-4.504885 0,-1.646618 0.0655,-3.975406 0.14554,-5.175085 l 0.14553,-2.181235 h 4.94401 4.94402 v 5.880779 5.880779 l -0.55092,0.110183 c -0.303,0.0606 -2.16988,0.153558 -4.14862,0.20657 -3.2707,0.08763 -3.6516,0.06789 -4.19066,-0.217106 z"
     id="path2017"
     transform="scale(0.26458333)" /><path
     style="fill:#ffffff;fill-opacity:1;stroke-width:0.999999"
     d="m 122.76388,95.960054 c -0.6028,-0.07807 -1.17338,-0.219317 -1.26794,-0.31388 -0.41232,-0.412318 -0.64169,-2.508671 -0.74559,-6.814336 l -0.10836,-4.490776 h 5.50096 5.50096 l -0.004,0.641539 c -0.002,0.352847 -0.11585,2.604651 -0.2529,5.004009 -0.13705,2.399357 -0.25085,4.676856 -0.2529,5.061107 l -0.004,0.698638 -3.29324,0.201597 c -3.57814,0.219038 -3.47761,0.218799 -5.07356,0.0121 z"
     id="path2023"
     transform="scale(0.26458333)" /><path
     style="fill:#ffffff;fill-opacity:1;stroke-width:0.999999"
     d="m 122.24048,39.746818 c -1.15315,-0.609728 -1.2889,-1.102209 -1.2889,-4.675991 0,-1.740711 0.0653,-4.069499 0.14519,-5.175085 l 0.14518,-2.010158 h 4.94436 4.94437 v 5.88222 5.88222 l -0.47046,0.100189 c -0.25876,0.0551 -2.12564,0.147425 -4.14863,0.205158 -3.35807,0.09584 -3.72976,0.07769 -4.27111,-0.208553 z"
     id="path2025"
     transform="scale(0.26458333)" /><path
     style="fill:#cccccc;fill-opacity:1;stroke-width:0.999999"
     d="m 170.60512,67.844205 c -1.24958,-0.445898 -1.65738,-1.110326 -1.77844,-2.897567 -0.0733,-1.081541 0.32299,-6.892584 0.47892,-7.023395 0.0816,-0.06843 11.30168,-0.637276 11.34892,-0.575375 0.0579,0.07583 -0.5558,10.244756 -0.62221,10.310569 -0.10648,0.105516 -5.66838,0.429891 -7.24433,0.422497 -0.84684,-0.004 -1.82912,-0.110502 -2.18286,-0.236729 z"
     id="path2027"
     transform="scale(0.26458333)" /><path
     style="fill:#cccccc;fill-opacity:1;stroke-width:0.999999"
     d="m 45.207151,197.48087 c 0.117616,-0.0475 0.310078,-0.0475 0.427693,0 0.117616,0.0475 0.02139,0.0863 -0.213846,0.0863 -0.235231,0 -0.331462,-0.0388 -0.213847,-0.0863 z"
     id="path2102"
     transform="scale(0.26458333)" /><path
     style="fill:#ffffff;fill-opacity:1;stroke:none;stroke-width:0.999998;stroke-opacity:1"
     d="m 173.87184,67.815786 c -4.61193,-0.150225 -4.71772,-0.265284 -4.71036,-5.122795 0.003,-2.089424 0.13018,-3.991764 0.28224,-4.227423 0.39665,-0.614702 10.61937,-1.130772 10.97579,-0.554087 0.14612,0.236434 0.1394,1.31628 -0.0149,2.399658 -0.15434,1.083378 -0.29298,3.109622 -0.30809,4.502766 -0.0294,2.708468 0.0327,2.631922 -2.47356,3.049159 -0.20697,0.03446 -1.89495,0.01318 -3.75107,-0.04728 z"
     id="path2580"
     transform="scale(0.26458333)" /></svg>
