<?xml version="1.0" encoding="UTF-8" standalone="no"?>
<!-- Created with Inkscape (http://www.inkscape.org/) -->

<svg
   width="119.73682mm"
   height="75.357841mm"
   viewBox="0 0 119.73682 75.357841"
   version="1.1"
   id="svg5"
   xml:space="preserve"
   xmlns:inkscape="http://www.inkscape.org/namespaces/inkscape"
   xmlns:sodipodi="http://sodipodi.sourceforge.net/DTD/sodipodi-0.dtd"
   xmlns="http://www.w3.org/2000/svg"
   xmlns:svg="http://www.w3.org/2000/svg"><sodipodi:namedview
     id="namedview7"
     pagecolor="#979797"
     bordercolor="#666666"
     borderopacity="1.0"
     inkscape:showpageshadow="2"
     inkscape:pageopacity="0"
     inkscape:pagecheckerboard="0"
     inkscape:deskcolor="#d1d1d1"
     inkscape:document-units="mm"
     showgrid="false" /><defs
     id="defs2" /><g
     inkscape:label="Layer 1"
     inkscape:groupmode="layer"
     id="layer1"
     transform="translate(141.94788,-160.72999)"><g
       id="g6127"
       transform="translate(-229.36232,103.57367)"><path
         style="fill:#f3c80b;fill-opacity:1;stroke:#fbcf0d;stroke-width:1.00157;stroke-linecap:round;stroke-dasharray:none;stroke-opacity:1"
         d="m -130.3486,877.69409 c -5.98399,-2.81021 -16.13258,-11.93616 -16.13258,-14.50696 0,-0.79905 3.10457,-4.75829 6.89905,-8.79831 8.97824,-9.55921 14.11297,-20.16766 17.76966,-36.71248 0.77442,-3.50386 1.45739,-3.88891 6.84817,-3.86093 8.25052,0.0428 16.520985,4.13899 22.52911,11.15813 13.239882,15.46783 9.571394,39.48926 -7.6574,50.14101 -8.81583,5.4504 -21.78785,6.55636 -30.25601,2.57954 z"
         id="path6859"
         transform="matrix(0.26458333,0,0,0.26458333,229.36232,-103.57367)" /></g><path
       style="fill:#ffffff;fill-opacity:1;stroke:#fbcf0d;stroke-width:1.00158;stroke-linecap:round;stroke-dasharray:none;stroke-opacity:1"
       d="m -461.0296,743.60754 c -2.34586,-0.37556 -7.09478,-2.07203 -10.55316,-3.76994 -11.49737,-5.64467 -19.99329,-17.04538 -23.66796,-31.76011 -1.34006,-5.36606 -1.5699,-8.14575 -1.28248,-15.50982 0.54109,-13.86304 4.49823,-23.40297 14.04556,-33.86123 6.31695,-6.91967 14.63041,-10.92843 26.47393,-12.76577 7.75151,-1.20253 9.16096,-1.2162 15.89757,-0.1542 10.49278,1.65414 20.15293,6.31288 25.47742,12.28683 7.8943,8.85719 12.54091,21.82973 12.54451,35.02208 l 0.002,7.1733 -34.31549,0.0247 c -28.32572,0.0204 -34.56787,0.21581 -35.76135,1.11975 -1.4065,1.06527 -1.40014,1.24558 0.23369,6.62458 2.24554,7.39297 7.47368,12.95138 14.58939,15.51105 l 4.84682,1.7435 v 9.58973 9.58973 l -2.1326,-0.0906 c -1.17293,-0.0499 -4.05194,-0.39794 -6.3978,-0.77349 z m 34.44332,-61.75678 c -0.52018,-2.88653 -2.10319,-6.67007 -4.2461,-10.14857 -0.61396,-0.99662 -3.11293,-2.82872 -5.55326,-4.07133 -3.97721,-2.02519 -5.19985,-2.25929 -11.79954,-2.25929 -6.97786,0 -7.62455,0.14399 -12.37564,2.75551 -5.71836,3.14321 -9.6315,8.26001 -10.33646,13.51592 l -0.41792,3.11585 h 22.62649 22.6265 z"
       id="path6285"
       transform="scale(0.26458333)" /><path
       style="fill:#ffffff;fill-opacity:1;stroke:#fbcf0d;stroke-width:1.00158;stroke-linecap:round;stroke-dasharray:none;stroke-opacity:1"
       d="m -533.92579,679.81962 v -70.85599 l 2.9081,-0.48067 c 1.59945,-0.26438 7.01202,-0.48452 12.02794,-0.48922 l 9.11984,-0.009 -0.49454,66.49838 c -0.272,36.57411 -0.71174,66.69506 -0.97719,66.93543 -0.26545,0.24037 -2.57647,1.06838 -5.13559,1.84002 -2.55912,0.77165 -7.34973,2.75604 -10.64579,4.40978 -3.29607,1.65374 -6.17508,3.00679 -6.39781,3.00679 -0.22272,0 -0.40496,-31.88519 -0.40496,-70.85599 z"
       id="path6287"
       transform="scale(0.26458333)" /><path
       style="fill:#ffffff;fill-opacity:1;stroke:#fbcf0d;stroke-width:1.00158;stroke-linecap:round;stroke-dasharray:none;stroke-opacity:1"
       d="m -504.04166,855.27951 c -9.65795,-1.40694 -21.36973,-6.71861 -25.28641,-11.46818 -3.44688,-4.17987 -7.45016,-12.26885 -6.5282,-13.1908 0.42266,-0.42266 5.24189,-1.9198 10.70942,-3.32698 l 9.94095,-2.55851 1.65727,2.32647 c 4.99072,7.00596 12.28368,11.24463 19.34728,11.24463 5.56889,0 12.94656,-3.36034 14.4049,-6.56106 2.64819,-5.81214 -0.75135,-11.14633 -8.14661,-12.78273 -10.17389,-2.25126 -26.60468,-7.35254 -32.4543,-10.07612 -10.73233,-4.99696 -14.93524,-12.60341 -13.57933,-24.57594 1.24911,-11.02959 6.18961,-17.85182 16.92746,-23.37482 15.90957,-8.18305 39.76671,-5.19727 51.78247,6.4807 3.26303,3.17131 6.56363,8.51108 6.56363,10.61876 0,0.67348 -3.65244,2.1952 -10.10997,4.21214 l -10.10997,3.15774 -2.73066,-3.57624 c -6.06945,-7.94892 -14.07541,-9.94617 -22.20944,-5.54059 -3.16071,1.71191 -4.56296,3.00322 -5.1784,4.76867 -2.51144,7.2043 -0.25456,8.8205 19.87479,14.23277 21.54509,5.79293 24.27346,6.90793 29.1628,11.91788 3.63114,3.72072 4.41848,5.07512 5.48454,9.43462 1.5408,6.3009 1.56153,9.26532 0.10387,14.86163 -1.44877,5.56219 -5.05351,11.43715 -9.19635,14.98811 -8.91705,7.64306 -24.7156,11.07705 -40.42974,8.78785 z"
       id="path6291"
       transform="scale(0.26458333)" /><path
       style="fill:#ffffff;fill-opacity:1;stroke:#fbcf0d;stroke-width:1.00158;stroke-linecap:round;stroke-dasharray:none;stroke-opacity:1"
       d="m -420.54341,853.67569 c -5.77145,-2.29039 -10.32791,-7.78845 -12.48532,-15.06541 -1.51365,-5.10556 -1.63495,-7.36456 -1.64475,-30.63191 -0.006,-13.81593 -0.22101,-25.90505 -0.4782,-26.86472 -0.37934,-1.4155 -1.01561,-1.74486 -3.37088,-1.74486 -1.59681,0 -4.52236,-0.22191 -6.50123,-0.49315 l -3.59795,-0.49315 v -9.58824 -9.58823 h 5.69599 c 8.34114,0 8.18364,0.3176 8.78691,-17.71856 l 0.49678,-14.85208 h 11.89744 c 6.5436,0 11.93117,0.0872 11.97239,0.19388 0.0412,0.10663 0.30294,7.05745 0.58162,15.44627 0.27867,8.38882 0.71538,15.46063 0.97046,15.71512 0.25508,0.25449 4.35549,0.68538 9.11202,0.95753 l 8.64824,0.49481 v 9.47369 9.47369 l -2.90809,0.48068 c -1.59945,0.26437 -5.57192,0.48452 -8.82771,0.48921 -5.47985,0.008 -5.95434,0.13816 -6.38721,1.75339 -0.25718,0.95967 -0.47237,11.96959 -0.47819,24.46649 -0.0114,24.5392 0.16114,25.70733 4.18769,28.34563 1.40347,0.9196 3.69999,1.2784 8.1823,1.2784 h 6.23121 v 9.22293 c 0,8.05786 -0.17143,9.29219 -1.35711,9.77124 -0.74641,0.30158 -6.59167,0.67385 -12.98948,0.82728 -10.39569,0.24931 -12.06874,0.10579 -15.73693,-1.34993 z"
       id="path6293"
       transform="scale(0.26458333)" /><path
       style="fill:#ffffff;fill-opacity:1;stroke:#fbcf0d;stroke-width:1.00158;stroke-linecap:round;stroke-dasharray:none;stroke-opacity:1"
       d="m -351.82477,744.32391 c -9.30601,-1.09362 -18.28574,-5.58671 -26.29975,-13.15929 -4.29682,-4.06014 -8.4438,-12.31002 -10.82341,-21.53177 -1.51709,-5.8792 -1.63011,-7.64959 -1.12866,-17.68056 0.48043,-9.61059 0.86494,-11.94624 2.78945,-16.94411 4.29509,-11.15418 11.11163,-19.30295 20.68695,-24.73001 3.98507,-2.25864 7.01231,-3.27252 12.7863,-4.28235 7.03119,-1.22971 8.09839,-1.23491 15.12208,-0.0737 7.42667,1.22786 11.46182,2.95605 20.09133,8.60481 l 2.45293,1.60566 1.23065,-1.757 c 0.67686,-0.96636 1.23065,-2.72627 1.23065,-3.91093 v -2.15392 h 12.40787 12.40786 v 46.91722 46.91723 h -12.40786 -12.40787 v -2.61927 c 0,-4.91191 -1.47029,-5.00638 -10.05669,-0.64611 -10.16567,5.16224 -17.83244,6.64855 -28.08183,5.44408 z m 20.45793,-21.64196 c 3.52459,-0.73028 4.85573,-1.58392 9.35247,-5.9976 4.81236,-4.72347 5.39629,-5.6567 7.10963,-11.36252 1.65683,-5.5176 1.79545,-6.9642 1.23315,-12.86891 -1.36738,-14.35875 -9.81102,-23.55621 -23.755,-25.87575 -2.27829,-0.37899 -4.86091,-0.0451 -9.03759,1.16852 -5.22107,1.51705 -6.36273,2.21874 -10.65312,6.5476 -4.18576,4.22329 -4.9953,5.53341 -6.27837,10.16057 -1.87653,6.76737 -1.87632,14.78165 5.8e-4,21.55033 1.30557,4.70829 2.06631,5.9115 6.67228,10.55304 3.90491,3.93506 5.99888,5.43186 8.41394,6.01439 4.45729,1.07514 12.04696,1.12457 16.94203,0.11033 z"
       id="path6295"
       transform="scale(0.26458333)" /><path
       style="fill:#ffffff;fill-opacity:1;stroke:#fbcf0d;stroke-width:1.00158;stroke-linecap:round;stroke-dasharray:none;stroke-opacity:1"
       d="m -349.35885,890.52284 c -2.34586,-0.63321 -7.10126,-2.47808 -10.56756,-4.09972 -5.4049,-2.52856 -6.92805,-3.70698 -10.69621,-8.27529 -5.08454,-6.16422 -6.00871,-8.56828 -3.88952,-10.11786 0.79317,-0.57999 5.54128,-2.38897 10.55136,-4.01997 l 9.10923,-2.96547 4.4912,4.35474 c 5.22118,5.06251 8.99838,6.5231 16.51133,6.3847 3.68681,-0.0679 6.20457,-0.64095 9.37399,-2.13348 3.89799,-1.83564 4.57648,-2.53376 6.75396,-6.94947 1.93282,-3.91956 2.52732,-6.32172 2.9499,-11.91962 0.39027,-5.16974 0.2718,-7.32099 -0.45111,-8.19205 -1.33949,-1.61398 -1.69087,-1.53028 -5.14288,1.22505 -1.6581,1.32346 -5.36157,3.59177 -8.22993,5.04069 -5.1368,2.59479 -5.36748,2.6344 -15.34174,2.6344 -9.35231,0 -10.42887,-0.15322 -14.08118,-2.00397 -8.21223,-4.16146 -14.3537,-12.05728 -17.23292,-22.15562 -1.05842,-3.71221 -1.25011,-9.27153 -1.25011,-36.25422 v -31.86966 h 12.02011 12.02012 l 10e-4,9.11202 c 8.5e-4,5.01162 0.23219,18.82815 0.51415,30.70342 0.51181,21.55656 0.51588,21.59622 2.52119,24.58205 1.1047,1.64486 3.40337,4.04577 5.10816,5.33535 2.84724,2.15379 3.60973,2.34646 9.36447,2.36628 5.66609,0.0195 6.59669,-0.19823 9.73688,-2.27821 4.84238,-3.20743 8.44227,-8.5167 9.67804,-14.27351 0.72205,-3.36366 1.02819,-12.17548 1.04747,-30.15006 l 0.0272,-25.39734 h 12.82489 12.82488 l -0.54404,51.75716 -0.54405,51.75715 -2.63461,5.54775 c -3.57127,7.52007 -11.10603,14.83463 -19.07304,18.51561 -10.10177,4.66731 -27.81332,6.42159 -37.75114,3.73915 z"
       id="path6297"
       transform="scale(0.26458333)" /><path
       style="fill:#ffffff;fill-opacity:1;stroke:#fbcf0d;stroke-width:1.00158;stroke-linecap:round;stroke-dasharray:none;stroke-opacity:1"
       d="m -272.58521,787.8992 v -68.24324 h 12.40787 12.40786 v 68.24324 68.24324 h -12.40786 -12.40787 z"
       id="path6299"
       transform="scale(0.26458333)" /><path
       style="fill:#ffffff;fill-opacity:1;stroke:#fbcf0d;stroke-width:1.00158;stroke-linecap:round;stroke-dasharray:none;stroke-opacity:1"
       d="m -272.58521,675.86039 v -27.54963 h 12.32035 12.32035 l 0.30593,5.41421 c 0.46233,8.18208 1.19705,8.33444 7.93166,1.64477 5.49164,-5.45499 5.95675,-5.73595 11.81653,-7.13818 3.35493,-0.80283 7.40851,-1.46241 9.00796,-1.46573 l 2.90809,-0.006 v 11.49272 11.49273 l -7.17329,0.94823 c -8.20516,1.08463 -10.60807,2.1707 -15.91691,7.19413 -5.02403,4.75394 -8.09356,12.49252 -8.87751,22.38109 l -0.21518,2.71422 -12.21399,0.21356 -12.21399,0.21357 z"
       id="path6301"
       transform="scale(0.26458333)" /><path
       style="fill:#ffffff;fill-opacity:1;stroke:#fbcf0d;stroke-width:1.00158;stroke-linecap:round;stroke-dasharray:none;stroke-opacity:1"
       d="m -201.24,695.22798 v -46.91722 h 12.02011 12.02012 v 3.39926 c 0,4.64547 2.20071,5.30549 6.59168,1.97694 8.86878,-6.72294 20.61333,-9.75641 30.6319,-7.91183 10.78612,1.98589 19.93682,7.64473 23.42798,14.48797 0.88105,1.727 2.46196,5.58949 3.51313,8.58331 2.26221,6.44294 2.90314,16.75583 3.19391,51.39117 l 0.18393,21.90763 h -12.35481 c -12.15685,0 -12.3623,-0.028 -12.82241,-1.74486 -0.25718,-0.95967 -0.47237,-14.38196 -0.47819,-29.82732 -0.01,-26.33877 -0.10867,-28.34462 -1.59021,-32.3044 -2.83363,-7.57354 -10.83127,-12.89706 -19.37553,-12.89706 -3.9401,0 -11.84337,4.12202 -14.58574,7.60732 -5.66942,7.2053 -5.52386,6.26492 -6.08242,39.29582 l -0.50511,29.8705 H -189.34583 -201.24 Z"
       id="path6303"
       transform="scale(0.26458333)" /><path
       style="fill:#ffffff;fill-opacity:1;stroke:#fbcf0d;stroke-width:1.00158;stroke-linecap:round;stroke-dasharray:none;stroke-opacity:1"
       d="m -197.69874,854.90025 c -9.73003,-2.35348 -19.92378,-8.73675 -26.3735,-16.51494 -3.81374,-4.59928 -6.18156,-8.76742 -8.54001,-15.03323 -1.78976,-4.75495 -1.97388,-6.31488 -1.97388,-16.72296 0,-10.02017 0.23216,-12.16128 1.82698,-16.84924 3.03459,-8.92015 5.85162,-13.60661 11.65963,-19.39715 7.15406,-7.13255 14.15687,-10.67015 25.5828,-12.92362 7.71129,-1.52086 8.90329,-1.56592 16.60808,-0.62778 10.71814,1.30506 18.33619,4.89473 25.39118,11.96448 8.23496,8.25219 12.40892,18.9396 13.291,34.0316 l 0.48725,8.33653 h -34.60998 -34.60997 l -1.22353,1.86734 c -1.11819,1.70658 -1.11031,2.2568 0.0915,6.39093 2.00484,6.89639 7.33996,12.61755 14.31989,15.35603 4.70504,1.84596 6.29921,2.09691 11.81146,1.85933 5.77845,-0.24906 6.82278,-0.54995 11.20597,-3.22865 2.65851,-1.6247 6.26394,-4.32822 8.01207,-6.00782 1.74812,-1.67959 3.66777,-3.05381 4.26588,-3.05381 1.36314,0 15.04095,5.86341 16.06377,6.88622 1.55446,1.55446 -0.45108,5.03101 -6.25524,10.84323 -6.85796,6.86749 -12.71053,10.26887 -21.56615,12.53376 -7.14321,1.82692 -18.57239,1.95696 -25.46521,0.28975 z m 32.77629,-60.33798 c 0.48364,-4.24047 -0.68877,-7.52076 -3.95413,-11.06325 -4.8194,-5.22843 -8.21655,-6.68411 -16.50853,-7.07388 -6.80701,-0.31997 -7.19036,-0.24536 -12.51487,2.43603 -4.67741,2.3555 -5.96612,3.47496 -8.68159,7.54142 -3.00502,4.50005 -4.12432,8.83304 -2.66001,10.29735 0.29086,0.29086 10.32378,0.43626 22.29538,0.32312 l 21.76655,-0.20571 z"
       id="path6305"
       transform="scale(0.26458333)" /></g></svg>
