<?xml version="1.0" encoding="UTF-8" standalone="no"?>
<!-- Created with Inkscape (http://www.inkscape.org/) -->

<svg
   width="535.11639"
   height="914.09534"
   viewBox="0 0 141.58288 241.85439"
   version="1.1"
   id="svg5"
   inkscape:version="1.2 (1:1.2+202206011326+fc4e4096c5)"
   sodipodi:docname="LogoAttempt.svg"
   inkscape:export-filename="LogoAttempt.svg"
   inkscape:export-xdpi="8.970005"
   inkscape:export-ydpi="8.970005"
   xmlns:inkscape="http://www.inkscape.org/namespaces/inkscape"
   xmlns:sodipodi="http://sodipodi.sourceforge.net/DTD/sodipodi-0.dtd"
   xmlns="http://www.w3.org/2000/svg"
   xmlns:svg="http://www.w3.org/2000/svg">
  <sodipodi:namedview
     id="namedview7"
     pagecolor="#ffffff"
     bordercolor="#666666"
     borderopacity="1.0"
     inkscape:showpageshadow="true"
     inkscape:pageopacity="0.0"
     inkscape:pagecheckerboard="true"
     inkscape:deskcolor="#d1d1d1"
     inkscape:document-units="px"
     showgrid="false"
     showborder="true"
     inkscape:zoom="0.5"
     inkscape:cx="134"
     inkscape:cy="533"
     inkscape:window-width="1920"
     inkscape:window-height="1016"
     inkscape:window-x="0"
     inkscape:window-y="27"
     inkscape:window-maximized="1"
     inkscape:current-layer="svg5" />
  <defs
     id="defs2" />
  <path
     id="path11642"
     style="color:#000000;fill:#f2f2f2;stroke-linecap:round;fill-opacity:1"
     d="M 33.585547 0 C 33.246935 7.8332324e-17 32.908528 0.1291835 32.650203 0.38757324 L 0.01550293 34.893477 C -0.50126655 35.410127 34.521407 2.2587769 34.521407 2.2587769 C 35.038187 1.7421274 35.038187 0.90422273 34.521407 0.38757324 C 34.263082 0.1291835 33.924159 -7.8332324e-17 33.585547 0 z M 111.98231 0 C 111.6437 0 111.30478 0.1291885 111.04645 0.38757324 L 96.25459 17.051672 C 95.73782 17.568322 112.91766 2.2587769 112.91766 2.2587769 C 113.43443 1.7421274 113.43443 0.90422273 112.91766 0.38757324 C 112.65933 0.1291885 112.32092 0 111.98231 0 z M 123.18318 0 C 122.84457 0 122.50616 0.1291885 122.24784 0.38757324 L 96.253556 28.250989 C 95.736787 28.767638 124.11904 2.2587769 124.11904 2.2587769 C 124.63582 1.7421274 124.63582 0.90422273 124.11904 0.38757324 C 123.86071 0.1291885 123.52179 0 123.18318 0 z M 134.3825 0 C 134.04389 0 133.70548 0.1291885 133.44715 0.38757324 L 96.253556 39.451855 C 95.736787 39.968505 135.31836 2.2587769 135.31836 2.2587769 C 135.83513 1.7421274 135.83513 0.90422273 135.31836 0.38757324 C 135.06003 0.1291885 134.7211 0 134.3825 0 z M 11.187431 0.0010335286 C 10.836641 0.00080352888 10.49981 0.13972349 10.251571 0.38757324 L 0.01550293 12.493811 C -0.49996655 13.010241 12.120707 2.2587769 12.120707 2.2587769 C 12.637487 1.7421274 12.637487 0.90422273 12.120707 0.38757324 C 11.872947 0.14020349 11.53754 0.0013235284 11.187431 0.0010335286 z M 22.38623 0.0010335286 C 22.035441 0.00080352888 21.699127 0.13972349 21.450887 0.38757324 L 0.01550293 23.694161 C -0.50126655 24.21081 23.322091 2.2587769 23.322091 2.2587769 C 23.83887 1.7421274 23.83887 0.90422273 23.322091 0.38757324 C 23.073851 0.13972349 22.73702 0.00080352888 22.38623 0.0010335286 z M 100.783 0.0010335286 C 100.43222 0.00080352888 100.09589 0.13973349 99.847652 0.38757324 L 96.253556 5.852356 C 95.736787 6.3690054 101.71834 2.2587769 101.71834 2.2587769 C 102.23512 1.7421274 102.23512 0.90422273 101.71834 0.38757324 C 101.4701 0.13972349 101.13379 0.00080352888 100.783 0.0010335286 z M 40.369629 4.4167847 C 40.031452 4.4167847 39.693534 4.5461064 39.435319 4.8038411 L 0.01550293 46.092794 C -0.50126655 46.609443 41.304456 6.674528 41.304456 6.674528 C 41.821225 6.1578785 41.821225 5.3204906 41.304456 4.8038411 C 41.046241 4.5461064 40.707806 4.4167847 40.369629 4.4167847 z M 140.25966 5.3242228 C 139.92105 5.3242228 139.58212 5.4534113 139.3238 5.7117961 L 96.253556 50.651172 C 95.736787 51.167821 141.195 7.5809326 141.195 7.5809326 C 141.71047 7.0645031 141.71047 6.2282255 141.195 5.7117961 C 140.93667 5.4534113 140.59827 5.3242228 140.25966 5.3242228 z M 44.900102 11.086662 C 44.549312 11.086432 44.212998 11.225869 43.964758 11.473718 L 0.01550293 57.29211 C -0.50127655 57.80876 45.835445 13.344405 45.835445 13.344405 C 46.352215 12.827756 46.352215 11.990368 45.835445 11.473718 C 45.587205 11.225869 45.250891 11.086432 44.900102 11.086662 z M 140.25966 16.522506 C 139.90859 16.522796 139.57172 16.662553 139.3238 16.911112 L 96.25459 61.850488 C 95.73782 62.367138 141.195 18.780249 141.195 18.780249 C 141.71047 18.26382 141.71047 17.427542 141.195 16.911112 C 140.94708 16.662553 140.61072 16.522796 140.25966 16.522506 z M 49.429541 17.754989 C 49.078471 17.755279 48.741601 17.895036 48.493681 18.143595 L 0.01550293 68.491943 C -0.49996655 69.008373 50.364884 20.014282 50.364884 20.014282 C 50.881654 19.497633 50.881654 18.660245 50.364884 18.143595 C 50.116965 17.895036 49.780611 17.755279 49.429541 17.754989 z M 53.95898 24.426416 C 53.608191 24.426186 53.27136 24.565623 53.02312 24.813472 L 0.01550293 79.692293 C -0.50127655 80.208943 54.894324 26.684676 54.894324 26.684676 C 55.411103 26.168027 55.411103 25.330122 54.894324 24.813472 C 54.646084 24.565633 54.30976 24.426186 53.95898 24.426416 z M 140.25966 27.721822 C 139.90859 27.722112 139.57172 27.861869 139.3238 28.110429 L 96.253556 73.049805 C 95.736777 73.566454 141.195 29.981116 141.195 29.981116 C 141.71177 29.464466 141.71177 28.627078 141.195 28.110429 C 140.94708 27.861869 140.61072 27.722112 140.25966 27.721822 z M 58.487903 31.09681 C 58.137123 31.09658 57.800799 31.23551 57.552559 31.48335 L 0.01550293 90.89161 C -0.50126655 91.408259 59.423763 33.354553 59.423763 33.354553 C 59.940543 32.837904 59.940543 31.999999 59.423763 31.48335 C 59.175513 31.23551 58.838692 31.09658 58.487903 31.09681 z M 63.017342 37.766687 C 62.666552 37.766457 62.330238 37.905377 62.081999 38.153227 L 0.01550293 102.09093 C -0.50126655 102.60758 63.952686 40.02443 63.952686 40.02443 C 64.469455 39.507781 64.469455 38.669876 63.952686 38.153227 C 63.704446 37.905377 63.368132 37.766457 63.017342 37.766687 z M 140.25966 38.922689 C 139.90887 38.922459 139.57255 39.061379 139.32431 39.309229 C 115.68714 62.943245 68.311076 112.19212 68.311076 112.19212 C 67.794296 112.70877 117.2122 65.162618 141.19552 41.180432 C 141.71229 40.663783 141.71229 39.825878 141.19552 39.309229 C 140.94728 39.061389 140.61044 38.922459 140.25966 38.922689 z M 67.548332 44.435531 C 67.20972 44.435531 66.871313 44.564714 66.612988 44.823104 L 0.01550293 113.28973 C -0.50126655 113.80638 68.484192 46.694307 68.484192 46.694307 C 69.000961 46.177658 69.000961 45.339753 68.484192 44.823104 C 68.225867 44.564714 67.886944 44.435531 67.548332 44.435531 z M 140.25966 50.120972 C 139.92105 50.120972 139.58212 50.25016 139.3238 50.508545 L 72.874622 118.82892 C 72.357852 119.34557 141.195 52.379749 141.195 52.379749 C 141.71177 51.863099 141.71177 51.025194 141.195 50.508545 C 140.93667 50.25016 140.59827 50.120972 140.25966 50.120972 z M 72.078288 51.105924 C 71.727498 51.105694 71.390667 51.245131 71.142428 51.492981 L 46.19718 76.438228 L 44.558521 78.076888 L 0.01550293 124.49008 C -0.49996655 125.00651 46.429207 79.948608 46.429207 79.948608 L 47.185234 79.192582 L 47.515963 78.861853 L 73.013631 53.363668 C 73.530401 52.847018 73.530401 52.00963 73.013631 51.492981 C 72.765391 51.245141 72.429067 51.105694 72.078288 51.105924 z M 76.60721 57.776318 C 76.256431 57.776088 75.920107 57.915018 75.671867 58.162858 L 50.056376 85.649552 C 49.539597 86.166202 77.542554 60.034062 77.542554 60.034062 C 78.059333 59.517412 78.059333 58.679508 77.542554 58.162858 C 77.294314 57.915008 76.958 57.776088 76.60721 57.776318 z M 140.25966 61.320288 C 139.92105 61.320288 139.58212 61.449477 139.3238 61.707861 L 77.439201 125.46366 C 76.922431 125.98031 141.195 63.579065 141.195 63.579065 C 141.71178 63.062415 141.71178 62.224511 141.195 61.707861 C 140.93667 61.449477 140.59827 61.320288 140.25966 61.320288 z M 81.13665 64.445162 C 80.798037 64.445162 80.459114 64.574345 80.200789 64.832735 L 54.620955 92.28584 C 54.104176 92.802489 82.071993 66.703939 82.071993 66.703939 C 82.588772 66.187289 82.588772 65.349385 82.071993 64.832735 C 81.813668 64.574345 81.475262 64.445162 81.13665 64.445162 z M 85.665572 71.115039 C 85.326962 71.115039 84.988553 71.244228 84.730229 71.502612 L 59.183468 98.920577 C 58.666698 99.437226 86.601432 73.373816 86.601432 73.373816 C 87.118202 72.857166 87.118202 72.019262 86.601432 71.502612 C 86.343108 71.244228 86.004182 71.115039 85.665572 71.115039 z M 140.25966 72.521155 C 139.92105 72.521155 139.58264 72.650338 139.32431 72.908728 L 81.068437 131.1646 C 81.063437 131.1696 81.059401 131.17479 81.055001 131.17959 C 53.379708 158.17006 26.758007 186.18437 0.01550293 214.08874 C 33.67305 182.62941 66.077695 149.89724 98.648242 117.32669 C 98.653242 117.32169 98.658228 117.31607 98.663228 117.31067 L 141.19552 74.778381 C 141.71099 74.261952 141.71099 73.425674 141.19552 72.909245 C 140.93719 72.650855 140.59827 72.521672 140.25966 72.521672 L 140.25966 72.521155 z M 90.195011 77.784916 C 89.856402 77.784916 89.517993 77.914105 89.259668 78.172489 L 63.748047 105.55635 C 63.232577 106.07278 91.130355 80.043693 91.130355 80.043693 C 91.647124 79.527044 91.647124 78.689139 91.130355 78.172489 C 90.87203 77.914105 90.533621 77.784916 90.195011 77.784916 z M 140.25966 83.720471 C 139.92105 83.720471 139.58264 83.849665 139.32431 84.108044 C 91.901221 131.11734 40.755343 182.85472 0.01550293 225.28754 C 52.89426 174.83262 90.426968 136.74573 141.19552 85.977181 C 141.711 85.460752 141.711 84.624474 141.19552 84.108044 C 140.93719 83.849665 140.59827 83.720471 140.25966 83.720471 z M 44.019535 90.363477 C 43.680926 90.363477 43.342 90.492665 43.083675 90.75105 L 0.01550293 135.69043 C -0.50126655 136.20709 44.954879 92.621737 44.954879 92.621737 C 45.471658 92.105087 45.471658 91.267699 44.954879 90.75105 C 44.696554 90.492665 44.358145 90.363477 44.019535 90.363477 z M 140.25966 94.919788 C 139.92105 94.919788 139.58264 95.048971 139.32431 95.307361 C 92.29734 141.84095 45.830948 188.76374 0.01550293 236.48686 C 48.096835 191.09557 94.445584 143.92802 141.19552 97.178564 C 141.7123 96.661915 141.7123 95.82401 141.19552 95.307361 C 140.93719 95.048971 140.59827 94.919788 140.25966 94.919788 z M 44.019535 101.56331 C 43.668756 101.56308 43.331915 101.70201 43.083675 101.94985 L 0.01550293 146.88974 C -0.50126655 147.40639 44.954879 103.82105 44.954879 103.82105 C 45.471658 103.3044 45.471658 102.4665 44.954879 101.94985 C 44.706639 101.702 44.370325 101.56308 44.019535 101.56331 z M 140.25966 106.12014 C 139.90887 106.11991 139.57204 106.25883 139.3238 106.50668 L 95.692867 152.00881 C 95.176098 152.52546 141.195 108.37788 141.195 108.37788 C 141.71178 107.86123 141.71178 107.02333 141.195 106.50668 C 140.94676 106.25884 140.61044 106.11991 140.25966 106.12014 z M 44.019535 112.76263 C 43.668756 112.7624 43.331915 112.90133 43.083675 113.14917 L 0.01550293 158.08854 C -0.50126655 158.60519 44.954879 115.02037 44.954879 115.02037 C 45.471648 114.50372 45.471648 113.66582 44.954879 113.14917 C 44.706639 112.90132 44.370325 112.7624 44.019535 112.76263 z M 140.25966 117.31842 C 139.92105 117.31842 139.58212 117.44761 139.3238 117.70599 L 100.25745 158.64355 C 99.740668 159.1602 141.195 119.5772 141.195 119.5772 C 141.71177 119.06055 141.71177 118.22264 141.195 117.70599 C 140.93667 117.44761 140.59827 117.31842 140.25966 117.31842 z M 44.019535 124.49576 C 43.668756 124.49552 43.331915 124.63446 43.083675 124.8823 L 0.01550293 169.82168 C -0.50126655 170.33833 44.954879 126.7535 44.954879 126.7535 C 45.471658 126.23685 45.471658 125.39895 44.954879 124.8823 C 44.706639 124.63445 44.370325 124.49552 44.019535 124.49576 z M 140.25966 128.51774 C 139.92105 128.51774 139.58212 128.64693 139.3238 128.90531 L 106.6891 163.41121 C 106.17232 163.92786 141.195 130.77651 141.195 130.77651 C 141.71177 130.25986 141.71177 129.42196 141.195 128.90531 C 140.93667 128.64693 140.59827 128.51774 140.25966 128.51774 z M 44.019535 135.69508 C 43.668756 135.69486 43.331915 135.83378 43.083675 136.08162 L 0.01550293 181.02099 C -0.50126655 181.53764 44.954879 137.95282 44.954879 137.95282 C 45.471648 137.43617 45.471648 136.59827 44.954879 136.08162 C 44.706639 135.83377 44.370325 135.69486 44.019535 135.69508 z M 140.25966 139.7186 C 139.92105 139.7186 139.58212 139.84779 139.3238 140.10618 L 117.88841 163.41121 C 117.37163 163.92786 141.195 141.97738 141.195 141.97738 C 141.71178 141.46073 141.71178 140.62283 141.195 140.10618 C 140.93667 139.84779 140.59827 139.7186 140.25966 139.7186 z M 44.019535 146.89388 C 43.668756 146.89366 43.331915 147.03309 43.083675 147.28093 L 0.01550293 192.22031 C -0.50126655 192.73696 44.954879 149.15214 44.954879 149.15214 C 45.471658 148.63549 45.471658 147.79758 44.954879 147.28093 C 44.706639 147.03308 44.370325 146.89366 44.019535 146.89388 z M 140.25966 150.91792 C 139.92105 150.91792 139.58212 151.04711 139.3238 151.30549 L 129.08773 163.41121 C 128.57095 163.92786 141.195 153.1767 141.195 153.1767 C 141.71177 152.66005 141.71177 151.82214 141.195 151.30549 C 140.93667 151.04711 140.59827 150.91792 140.25966 150.91792 z M 44.019535 158.09319 C 43.668756 158.09296 43.331915 158.23242 43.083675 158.48025 L 0.01550293 203.41962 C -0.50126655 203.93627 44.954879 160.35094 44.954879 160.35094 C 45.471648 159.83429 45.471648 158.9969 44.954879 158.48025 C 44.706639 158.2324 44.370325 158.09296 44.019535 158.09319 z M 44.019535 202.36026 C 43.668756 202.36003 43.331915 202.49896 43.083675 202.7468 L 5.8921468 241.80953 C 5.3753673 242.32618 44.954879 204.618 44.954879 204.618 C 45.471648 204.10135 45.471648 203.26345 44.954879 202.7468 C 44.706639 202.49895 44.370325 202.36003 44.019535 202.36026 z M 44.019535 213.55957 C 43.668476 213.55986 43.331595 213.69962 43.083675 213.94818 L 17.09353 241.80953 C 16.576751 242.32618 44.954879 215.81732 44.954879 215.81732 C 45.470348 215.30089 45.470348 214.46461 44.954879 213.94818 C 44.706959 213.69962 44.370605 213.55986 44.019535 213.55957 z M 44.019535 224.75992 C 43.680926 224.75992 43.342 224.88911 43.083675 225.1475 L 28.292847 241.80953 C 27.776067 242.32618 44.954879 227.01818 44.954879 227.01818 C 45.471648 226.50153 45.471648 225.66415 44.954879 225.1475 C 44.696554 224.88911 44.358145 224.75992 44.019535 224.75992 z M 44.019535 235.95924 C 43.680926 235.95924 43.342 236.08843 43.083675 236.34681 L 39.492163 241.80953 C 38.975384 242.32618 44.954879 238.2175 44.954879 238.2175 C 45.471648 237.70085 45.471648 236.86346 44.954879 236.34681 C 44.696554 236.08843 44.358145 235.95924 44.019535 235.95924 z " />
</svg>
